<svg width="263" height="310" viewBox="0 0 263 310" fill="none" xmlns="http://www.w3.org/2000/svg">
<path d="M74.2801 94V54C74.2801 26.3857 100.024 4 131.78 4C163.536 4 189.28 26.3857 189.28 54V94" stroke="white" stroke-width="7.17" stroke-linecap="round" stroke-linejoin="round"/>
<path fill-rule="evenodd" clip-rule="evenodd" d="M0.164911 287.461L24.0994 100.461C25.3771 90.4783 33.8736 83 43.9376 83H216.772C226.77 83 235.232 90.3832 236.588 100.289L262.173 287.289C263.816 299.3 254.481 310 242.357 310H20.0031C7.94948 310 -1.36537 299.417 0.164911 287.461ZM89.2801 122C89.2801 130.284 82.5643 137 74.2801 137C65.9958 137 59.2801 130.284 59.2801 122C59.2801 113.716 65.9958 107 74.2801 107C82.5643 107 89.2801 113.716 89.2801 122ZM189.28 137C197.564 137 204.28 130.284 204.28 122C204.28 113.716 197.564 107 189.28 107C180.996 107 174.28 113.716 174.28 122C174.28 130.284 180.996 137 189.28 137Z" fill="white"/>
<path d="M102.156 190.816L104.316 190.805C109.286 190.78 113.295 186.73 113.27 181.76L113.246 177.08C113.221 172.109 109.171 168.101 104.201 168.126L102.041 168.137" stroke="black" stroke-width="5"/>
<path d="M102.114 213.556L104.274 213.545C109.245 213.52 113.254 209.47 113.228 204.5L113.205 199.95C113.18 194.979 109.13 190.97 104.16 190.996L102 191.007" stroke="black" stroke-width="5"/>
<path d="M102 168H90C89.4477 168 89 168.448 89 169V190.735M102 190.735H89M89 190.735V212.5C89 213.052 89.4477 213.5 90 213.5H105" stroke="black" stroke-width="5" stroke-linecap="round"/>
<path d="M122 175V193C122 197.971 126.029 202 131 202H135C139.971 202 144 197.971 144 193V175" stroke="black" stroke-width="4" stroke-linecap="round"/>
<path d="M152 175V192C152 196.971 156.029 201 161 201H164C168.971 201 173 196.971 173 192V175" stroke="black" stroke-width="4" stroke-linecap="round"/>
<path d="M88 247C86.8954 247 86 247.895 86 249C86 250.105 86.8954 251 88 251V247ZM171 184V240H175V184H171ZM164 247H88V251H164V247ZM171 240C171 243.866 167.866 247 164 247V251C170.075 251 175 246.075 175 240H171Z" fill="black"/>
<path d="M157.5 228H133" stroke="black" stroke-width="4" stroke-linecap="round"/>
<path d="M158 236.293C158 236.293 154.846 242.829 151.623 244.7C149.316 246.039 147.764 245.899 145.245 245.993C143.384 246.063 140.916 245.579 139.248 245.183C138.019 244.892 136.888 244.287 136.007 243.383C135.298 242.655 134.478 241.718 133.962 240.82C132.824 238.836 132 236.293 132 234" stroke="black" stroke-width="4" stroke-linecap="round"/>
<path d="M109.995 246.461L110.377 228.465C110.483 223.496 106.54 219.382 101.57 219.276L97.5712 219.191C92.6017 219.086 88.4877 223.029 88.3821 227.998L88 245.994" stroke="black" stroke-width="4" stroke-linecap="round"/>
<path d="M110 245.994L110.382 227.998C110.488 223.028 114.602 219.085 119.571 219.191L123.395 219.272C128.433 219.379 132.401 223.6 132.197 228.634L132 233.5" stroke="black" stroke-width="4" stroke-linecap="round"/>
<path d="M137.5 218C139.726 215.537 141.715 214.476 145 214C147.733 213.604 149.626 214.019 152 215C153.952 215.807 154.661 216.367 156 218C157.22 219.487 157.619 221.115 158 223C158.348 224.722 158 227.5 158 227.5" stroke="black" stroke-width="4" stroke-linecap="round"/>
</svg>
