<svg width="185" height="202" viewBox="0 0 185 202" fill="none" xmlns="http://www.w3.org/2000/svg">
<path d="M52.3774 62.2353V36.3529C52.3774 18.4849 70.5304 4 92.9227 4C115.315 4 133.468 18.4849 133.468 36.3529V62.2353" stroke="black" stroke-width="7.17" stroke-linecap="round" stroke-linejoin="round"/>
<path fill-rule="evenodd" clip-rule="evenodd" d="M0.116285 187.416L16.9933 66.4159C17.8943 59.9565 23.8855 55.1176 30.9819 55.1176H152.854C159.904 55.1176 165.87 59.895 166.827 66.3046L184.867 187.305C186.026 195.076 179.444 202 170.894 202H14.1049C5.60546 202 -0.96277 195.152 0.116285 187.416Z" fill="black"/>
<ellipse cx="133.271" cy="81.6471" rx="10.577" ry="9.70588" fill="#D9D9D9"/>
<ellipse cx="52.18" cy="81.6471" rx="10.577" ry="9.70588" fill="#D9D9D9"/>
<path d="M72.7389 116.469L74.262 116.462C77.7665 116.446 80.5934 113.825 80.5758 110.609L80.5589 107.581C80.5413 104.365 77.6854 101.771 74.1809 101.787L72.6578 101.795" stroke="white" stroke-width="5"/>
<path d="M72.7093 131.183L74.2324 131.176C77.7376 131.16 80.5645 128.539 80.5462 125.324L80.5299 122.379C80.5123 119.163 77.6565 116.569 74.152 116.586L72.6289 116.593" stroke="white" stroke-width="5"/>
<path d="M72.6289 101.706H64.1673C63.7778 101.706 63.4622 101.996 63.4622 102.353V116.417M63.4622 116.417H72.6289M63.4622 116.417V130.5C63.4622 130.857 63.7778 131.147 64.1673 131.147H74.7443" stroke="white" stroke-width="5" stroke-linecap="round"/>
<path d="M86.7317 106.235V117.882C86.7317 121.099 89.5727 123.706 93.0779 123.706H95.8984C99.4037 123.706 102.245 121.099 102.245 117.882V106.235" stroke="white" stroke-width="4" stroke-linecap="round"/>
<path d="M107.886 106.235V117.235C107.886 120.452 110.727 123.059 114.232 123.059H116.347C119.853 123.059 122.694 120.452 122.694 117.235V106.235" stroke="white" stroke-width="4" stroke-linecap="round"/>
<path d="M62.757 152.824C61.9781 152.824 61.3467 153.403 61.3467 154.118C61.3467 154.833 61.9781 155.412 62.757 155.412V152.824ZM121.283 112.059V148.294H124.104V112.059H121.283ZM116.347 152.824H62.757V155.412H116.347V152.824ZM121.283 148.294C121.283 150.796 119.073 152.824 116.347 152.824V155.412C120.631 155.412 124.104 152.225 124.104 148.294H121.283Z" fill="white"/>
<path d="M111.764 140.529H94.4882" stroke="white" stroke-width="4" stroke-linecap="round"/>
<path d="M112.116 145.895C112.116 145.895 109.892 150.125 107.62 151.335C105.993 152.202 104.899 152.111 103.122 152.172C101.81 152.217 100.07 151.904 98.8938 151.648C98.0272 151.46 97.2297 151.068 96.6084 150.483C96.1085 150.012 95.5303 149.406 95.1664 148.825C94.364 147.541 93.783 145.895 93.783 144.412" stroke="white" stroke-width="4" stroke-linecap="round"/>
<path d="M78.2665 152.475L78.5359 140.83C78.6106 137.615 75.8303 134.953 72.3258 134.884L69.5061 134.829C66.0019 134.762 63.101 137.313 63.0265 140.528L62.7571 152.173" stroke="white" stroke-width="4" stroke-linecap="round"/>
<path d="M78.27 152.173L78.5394 140.528C78.6141 137.312 81.5151 134.761 85.0189 134.829L87.7153 134.882C91.2678 134.951 94.0658 137.682 93.9219 140.94L93.783 144.088" stroke="white" stroke-width="4" stroke-linecap="round"/>
<path d="M97.6613 134.059C99.2309 132.465 100.633 131.779 102.95 131.471C104.877 131.214 106.212 131.483 107.886 132.118C109.262 132.64 109.762 133.002 110.706 134.059C111.567 135.021 111.848 136.074 112.117 137.294C112.362 138.408 112.117 140.206 112.117 140.206" stroke="white" stroke-width="4" stroke-linecap="round"/>
</svg>
